<?xml version="1.0" encoding="UTF-8"?>
<svg id="Logo" xmlns="http://www.w3.org/2000/svg" version="1.1" viewBox="0 0 1500 1500">
  <!-- Generator: Adobe Illustrator 29.2.1, SVG Export Plug-In . SVG Version: 2.1.0 Build 116)  -->
  <defs>
    <style>
      .st0 {
        fill: #fdb719;
      }

      .st1 {
        fill: #139dd9;
      }

      .st2 {
        fill: #1b449c;
      }

      .st3 {
        fill: #109eda;
      }

      .st4 {
        fill: #1b479a;
      }

      .st5 {
        fill: #fdb71c;
      }

      .st6 {
        fill: #999;
      }
    </style>
  </defs>
  <g id="LockupColor">
    <g id="Mark">
      <path class="st0" d="M772.07,574.86c55.99-19.45,162.24-46.53,269.2-23.45-52.81-45.23-211.28-17.05-269.26,23.35-.07.04-.01.13.06.1M1109.69,605.05c-63.08-45.85-181.84-48.93-319.68,52.62-136.72,100.69-259.8,106.36-338.96,57.83-1.14-.7-2.62-.52-3.52.47l-10.77,11.63c-1.63,1.77-4.35,1.88-6.21.35-14.85-12.25-24.7,1.87-25.76,3.5-.07.1-.14.21-.22.31l-24.63,31.96c-1.3,1.67-3.58,2.22-5.5,1.31l-62.87-30.13c-2.63-1.32-3.06-6.38-1.28-8.73l134.71-179.04c6.56-7.8,8.82-7.38,15.18-1.43l42.04,44.3c2.81,2.93,4.58,8.99,2.26,12.3l-28,35.69c-13.93,16.1,6.69,29.94,6.69,29.94l-9.85,13.54c88.62,15.7,212.07-68.4,212.07-68.4,158.38-113.05,342.37-161.22,424.3-8M374.86,737.45l11.77-18.56-28.43-23.93-20.05,25.26,36.71,17.23Z"/>
      <path class="st1" d="M881.23,633.66s-.36,112.94-.36,113.86c0,45.11-10.46,59.17-59.68,59.17-46.15.31-156.86-.42-156.86-.42,0,0-39.7,2.01-41.85-40.76,0,0,79.95-17.39,136.3-56,32.5-22.26,105.83-69.07,122.45-75.84"/>
      <path class="st1" d="M689.3,400.98c-53.72-8.94-47.9,39.1-45.82,50.36.11.59.91.64,1.1.08,2.13-6.48,11.06-26.29,44.79-50.14.11-.08.07-.28-.07-.31M882.19,432.13c0,46.17.17,55.42.25,56.94-2.51.52-72.26,15.13-123.21,46.96-58.5,36.53-119.58,79.78-136.76,84.34l-.26-193.48s-2.66-47.07,44.41-47.07c0,0,81.73-.7,155.39.52,24.81.42,60.18-4.08,60.18,51.8"/>
      <path class="st4" d="M931.23,613.04v195.4c0,70.85-61.99,83.81-75.77,85.8-1.55.24-190.68.33-190.68.33-91.62,0-92.31-76.11-92.31-123.49,0-.11.08-.18.2-.15,2.12.52,17.93-.86,29.03-2.31,5.34,60.73,63.69,58.57,63.69,58.57l156.2.72c63.6,1.23,80.2-30.77,81.02-62.47v-141.64l28.61-10.77ZM782.63,871.66s14.77,1.84,14-12.77c-.77-14.61-13.54-13.23-13.54-13.23,0,0-51.68.93-64.31.93s-11.53,12.3-11.53,12.3c.61,15.99,14.31,12.84,14.31,12.84l61.07-.07Z"/>
      <path class="st2" d="M931.23,433.36v50.76l-28.78,1.2.32-56.11c-.01-.72,6.28-71.83-72.36-70.2-28.2,0-143.14.43-143.78.4-36.11-1.23-86.36-2.02-84.92,75.28l.61,195.89-28.71,11.9s-.21-226.12-.21-227.58c0-33.84,24.62-83.68,83.7-83.68,37.86,0,166.41-.4,168.27-.4,22.89.1,106.7-10.13,105.86,102.55"/>
    </g>
    <g id="Type">
      <g id="Name">
        <path class="st2" d="M200.49,943.82v30.8h18.26v-30.8h15.93v73.82h-15.93v-32.06h-18.26v32.06h-15.93v-73.82h15.93Z"/>
        <path class="st2" d="M244.3,1017.65v-73.82h15.93v73.82h-15.93Z"/>
        <path class="st2" d="M318.87,1002.88c0,11.39-9.61,15.61-24.17,15.61h-1.1c-14.56,0-24.17-4.11-24.17-15.61v-44.29c0-10.97,9.61-15.61,24.17-15.61h1.1c14.56,0,24.17,4.64,24.17,15.61v10.55h-15.93v-8.65c0-5.27-3.57-6.75-8.79-6.75s-8.79,1.48-8.79,6.75v40.5c0,5.27,3.57,6.75,8.79,6.75s8.79-1.48,8.79-6.75v-10.97h-9.34v-10.34h25.27v23.2Z"/>
        <path class="st2" d="M343.17,943.82v30.8h18.26v-30.8h15.93v73.82h-15.93v-32.06h-18.26v32.06h-15.93v-73.82h15.93Z"/>
        <path class="st2" d="M426.94,1017.65h-40.51v-73.82h15.93v62.86h24.58v10.97Z"/>
        <path class="st2" d="M461.4,1001.19h-17.58l-3.43,16.45h-15.38l17.85-73.82h20.05l18.13,73.82h-16.2l-3.43-16.45ZM459.34,991.07l-6.73-32.8-6.73,32.8h13.46Z"/>
        <path class="st2" d="M484.47,1017.65v-73.82h15.93l20.19,45.67v-45.67h14.56v73.82h-15.11l-21.01-47.99v47.99h-14.56Z"/>
        <path class="st2" d="M592.96,959.43v42.61c0,11.18-9.61,15.61-24.17,15.61h-24.58v-73.82h24.58c14.56,0,24.17,4.43,24.17,15.61ZM568.24,954.58h-8.1v52.31h8.1c5.22,0,8.79-1.48,8.79-6.75v-38.81c0-5.27-3.57-6.75-8.79-6.75Z"/>
        <path class="st2" d="M601.47,1017.65v-73.82h42.16v10.76h-26.23v20.25h21.97v10.76h-21.97v21.3h26.64v10.76h-42.57Z"/>
        <path class="st2" d="M686.89,1017.65l-12.22-29.42h-7.96v29.42h-15.93v-73.82h24.86c14.56,0,24.17,4.43,24.17,15.61v13.18c0,7.07-3.85,11.5-10.44,13.71l13.73,31.32h-16.2ZM666.7,977.68h8.38c5.22,0,8.79-1.48,8.79-6.75v-9.6c0-5.27-3.57-6.75-8.79-6.75h-8.38v23.1Z"/>
        <path class="st2" d="M754.72,1001.19h-17.58l-3.43,16.45h-15.38l17.85-73.82h20.05l18.13,73.82h-16.2l-3.43-16.45ZM752.66,991.07l-6.73-32.8-6.73,32.8h13.46Z"/>
        <path class="st2" d="M824.89,1002.88c0,11.39-9.34,15.61-23.89,15.61h-.55c-14.56,0-23.89-4.11-23.89-15.61v-59.06h15.93v57.16c0,5.27,3.02,6.75,8.24,6.75s8.24-1.48,8.24-6.75v-57.16h15.93v59.06Z"/>
        <path class="st2" d="M876.25,954.58h-16.07v63.07h-15.93v-63.07h-16.07v-10.76h48.06v10.76Z"/>
        <path class="st2" d="M903.03,942.98h1.1c14.56,0,24.17,4.43,24.17,15.61v44.29c0,11.18-9.61,15.61-24.17,15.61h-1.1c-14.56,0-24.17-4.43-24.17-15.61v-44.29c0-11.29,9.61-15.61,24.17-15.61ZM903.58,1007.73c5.22,0,8.79-1.48,8.79-6.75v-40.5c0-5.27-3.57-6.75-8.79-6.75s-8.79,1.48-8.79,6.75v40.5c0,5.27,3.57,6.75,8.79,6.75Z"/>
        <path class="st2" d="M974.99,1006.89h-8.93l-14.42-34.38v45.14h-14.83v-73.82h15.11l18.54,42.92,18.68-42.92h15.66v73.82h-15.38v-45.14l-14.42,34.38Z"/>
        <path class="st2" d="M1037.47,942.98h1.1c14.56,0,24.17,4.43,24.17,15.61v44.29c0,11.18-9.61,15.61-24.17,15.61h-1.1c-14.56,0-24.17-4.43-24.17-15.61v-44.29c0-11.29,9.61-15.61,24.17-15.61ZM1038.02,1007.73c5.22,0,8.79-1.48,8.79-6.75v-40.5c0-5.27-3.57-6.75-8.79-6.75s-8.79,1.48-8.79,6.75v40.5c0,5.27,3.57,6.75,8.79,6.75Z"/>
        <path class="st2" d="M1113.27,954.58h-16.07v63.07h-15.93v-63.07h-16.07v-10.76h48.06v10.76Z"/>
        <path class="st2" d="M1117.53,1017.65v-73.82h15.93v73.82h-15.93Z"/>
        <path class="st2" d="M1173,1017.65h-17.58l-18.13-73.82h16.2l11.12,54.74,11.12-54.74h15.38l-18.13,73.82Z"/>
        <path class="st2" d="M1194.43,1017.65v-73.82h42.16v10.76h-26.23v20.25h21.97v10.76h-21.97v21.3h26.64v10.76h-42.57Z"/>
      </g>
      <g id="Slogan">
        <path class="st3" d="M416.63,1081.09v-30.2h34.94v3.56h-28.54v9.25h26.73v3.54h-26.73v10.28h29.66v3.56h-36.06Z"/>
        <path class="st3" d="M454.58,1081.09l12.79-11.37-11.83-10.51h7.42l5.37,5.13c1.01.98,1.82,1.79,2.44,2.45.97-.91,1.86-1.71,2.67-2.41l5.9-5.17h7.09l-12.1,10.3,13.02,11.58h-7.28l-7.18-6.8-1.91-1.83-9.2,8.63h-7.18Z"/>
        <path class="st3" d="M512.09,1073.08l5.83.47c-.64,2.51-2.27,4.48-4.89,5.9-2.63,1.42-5.85,2.13-9.67,2.13-4.79,0-8.64-.98-11.55-2.94-2.91-1.96-4.37-4.76-4.37-8.41,0-2.36.63-4.43,1.88-6.2,1.25-1.77,3.16-3.1,5.72-3.99,2.56-.89,5.34-1.33,8.36-1.33,3.8,0,6.91.6,9.33,1.8,2.42,1.2,3.97,2.91,4.65,5.12l-5.77.56c-.55-1.47-1.52-2.57-2.92-3.32s-3.08-1.11-5.06-1.11c-2.99,0-5.42.67-7.28,2.01-1.87,1.34-2.8,3.46-2.8,6.36s.9,5.07,2.7,6.41,4.15,2,7.05,2c2.33,0,4.27-.45,5.83-1.34s2.55-2.27,2.97-4.12Z"/>
        <path class="st3" d="M543.72,1074.05l6.13.47c-.97,2.24-2.76,3.98-5.37,5.21-2.61,1.24-5.95,1.85-10.02,1.85-5.12,0-9.18-.98-12.18-2.96s-4.5-4.74-4.5-8.29,1.52-6.54,4.55-8.57c3.03-2.03,6.97-3.05,11.8-3.05s8.5,1,11.47,2.99,4.45,4.79,4.45,8.4c0,.22-.01.55-.03.99h-26.1c.22,2.4,1.31,4.24,3.26,5.52s4.39,1.92,7.32,1.92c2.18,0,4.03-.36,5.57-1.07s2.76-1.85,3.66-3.42ZM524.24,1068.05h19.54c-.26-1.84-1.01-3.22-2.24-4.14-1.89-1.43-4.34-2.14-7.35-2.14-2.72,0-5.02.57-6.87,1.71s-2.88,2.66-3.08,4.57Z"/>
        <path class="st3" d="M554.87,1081.09v-30.2h5.93v30.2h-5.93Z"/>
        <path class="st3" d="M567.57,1081.09v-30.2h5.93v30.2h-5.93Z"/>
        <path class="st3" d="M604.03,1074.05l6.13.47c-.97,2.24-2.76,3.98-5.37,5.21-2.61,1.24-5.95,1.85-10.02,1.85-5.12,0-9.18-.98-12.18-2.96s-4.5-4.74-4.5-8.29,1.52-6.54,4.55-8.57,6.97-3.05,11.8-3.05,8.5,1,11.47,2.99,4.45,4.79,4.45,8.4c0,.22-.01.55-.03.99h-26.1c.22,2.4,1.31,4.24,3.26,5.52,1.96,1.28,4.39,1.92,7.32,1.92,2.18,0,4.03-.36,5.57-1.07s2.76-1.85,3.66-3.42ZM584.55,1068.05h19.54c-.26-1.84-1.01-3.22-2.24-4.14-1.89-1.43-4.34-2.14-7.35-2.14-2.72,0-5.02.57-6.87,1.71s-2.88,2.66-3.08,4.57Z"/>
        <path class="st3" d="M615.31,1081.09v-21.88h5.34v3.11c2.57-2.4,6.28-3.6,11.14-3.6,2.11,0,4.05.24,5.82.71,1.77.47,3.09,1.09,3.97,1.86s1.49,1.68,1.85,2.74c.22.69.33,1.89.33,3.6v13.45h-5.93v-13.31c0-1.51-.23-2.64-.69-3.39-.46-.75-1.28-1.34-2.46-1.79s-2.55-.67-4.14-.67c-2.53,0-4.71.5-6.54,1.5s-2.75,2.9-2.75,5.71v11.95h-5.93Z"/>
        <path class="st3" d="M673.4,1073.08l5.83.47c-.64,2.51-2.27,4.48-4.89,5.9-2.63,1.42-5.85,2.13-9.67,2.13-4.79,0-8.64-.98-11.55-2.94-2.91-1.96-4.37-4.76-4.37-8.41,0-2.36.63-4.43,1.88-6.2s3.16-3.1,5.72-3.99c2.56-.89,5.34-1.33,8.36-1.33,3.8,0,6.91.6,9.33,1.8,2.42,1.2,3.97,2.91,4.65,5.12l-5.77.56c-.55-1.47-1.52-2.57-2.92-3.32s-3.08-1.11-5.06-1.11c-2.99,0-5.42.67-7.28,2.01-1.87,1.34-2.8,3.46-2.8,6.36s.9,5.07,2.7,6.41,4.15,2,7.05,2c2.33,0,4.27-.45,5.83-1.34s2.55-2.27,2.97-4.12Z"/>
        <path class="st3" d="M705.03,1074.05l6.13.47c-.97,2.24-2.76,3.98-5.37,5.21-2.61,1.24-5.95,1.85-10.02,1.85-5.12,0-9.18-.98-12.18-2.96s-4.5-4.74-4.5-8.29,1.52-6.54,4.55-8.57,6.97-3.05,11.8-3.05,8.5,1,11.47,2.99,4.45,4.79,4.45,8.4c0,.22-.01.55-.03.99h-26.1c.22,2.4,1.31,4.24,3.26,5.52s4.39,1.92,7.32,1.92c2.18,0,4.03-.36,5.57-1.07s2.76-1.85,3.66-3.42ZM685.55,1068.05h19.54c-.26-1.84-1.01-3.22-2.24-4.14-1.89-1.43-4.34-2.14-7.35-2.14-2.72,0-5.02.57-6.87,1.71s-2.88,2.66-3.08,4.57Z"/>
        <path class="st6" d="M733.67,1070.15c0-4.05,1.8-7.05,5.41-9,3.01-1.62,6.68-2.43,11.01-2.43,4.81,0,8.75.99,11.8,2.96,3.05,1.97,4.58,4.69,4.58,8.17,0,2.82-.68,5.03-2.03,6.64s-3.32,2.87-5.9,3.76c-2.58.89-5.4,1.34-8.45,1.34-4.9,0-8.86-.98-11.88-2.95s-4.53-4.79-4.53-8.49ZM739.77,1070.15c0,2.8.98,4.9,2.93,6.29s4.42,2.09,7.38,2.09,5.39-.7,7.35-2.1c1.96-1.4,2.93-3.54,2.93-6.41,0-2.71-.98-4.75-2.95-6.15s-4.41-2.09-7.33-2.09-5.43.69-7.38,2.08-2.93,3.48-2.93,6.28Z"/>
        <path class="st6" d="M771.13,1081.09v-21.88h5.34v3.11c2.57-2.4,6.28-3.6,11.14-3.6,2.11,0,4.05.24,5.82.71,1.77.47,3.09,1.09,3.97,1.86s1.49,1.68,1.85,2.74c.22.69.33,1.89.33,3.6v13.45h-5.93v-13.31c0-1.51-.23-2.64-.69-3.39-.46-.75-1.28-1.34-2.46-1.79s-2.55-.67-4.14-.67c-2.53,0-4.71.5-6.54,1.5-1.83,1-2.75,2.9-2.75,5.71v11.95h-5.93Z"/>
        <path class="st5" d="M833.9,1081.09l-12.82-30.2h6.56l7.35,19.8c.79,2.07,1.47,4.13,2.04,6.18,1.23-3.23,1.96-5.09,2.18-5.58l9.2-20.39h7.71l6.92,15.28c1.74,3.79,2.99,7.35,3.76,10.69.62-1.91,1.42-4.1,2.41-6.57l7.58-19.4h6.43l-13.25,30.2h-6.16l-10.18-23.01c-.86-1.92-1.36-3.1-1.52-3.54-.51,1.39-.98,2.57-1.42,3.54l-10.25,23.01h-6.53Z"/>
        <path class="st5" d="M886.19,1081.09v-30.2h5.93v10.84c2.77-2,6.26-3.01,10.48-3.01,2.59,0,4.84.32,6.76.96,1.91.64,3.28,1.52,4.1,2.65.82,1.13,1.24,2.76,1.24,4.9v13.86h-5.93v-13.86c0-1.85-.64-3.2-1.93-4.05-1.29-.85-3.1-1.27-5.45-1.27-1.76,0-3.41.29-4.96.86s-2.65,1.34-3.31,2.32-.99,2.32-.99,4.04v11.97h-5.93Z"/>
        <path class="st5" d="M945.4,1074.05l6.13.47c-.97,2.24-2.76,3.98-5.37,5.21-2.61,1.24-5.95,1.85-10.02,1.85-5.12,0-9.18-.98-12.18-2.96s-4.5-4.74-4.5-8.29,1.52-6.54,4.55-8.57c3.03-2.03,6.97-3.05,11.8-3.05s8.5,1,11.47,2.99,4.45,4.79,4.45,8.4c0,.22-.01.55-.03.99h-26.1c.22,2.4,1.31,4.24,3.26,5.52s4.39,1.92,7.32,1.92c2.18,0,4.03-.36,5.57-1.07s2.76-1.85,3.66-3.42ZM925.92,1068.05h19.54c-.26-1.84-1.01-3.22-2.24-4.14-1.89-1.43-4.34-2.14-7.35-2.14-2.72,0-5.02.57-6.87,1.71s-2.88,2.66-3.08,4.57Z"/>
        <path class="st5" d="M980.3,1074.05l6.13.47c-.97,2.24-2.76,3.98-5.37,5.21-2.61,1.24-5.95,1.85-10.02,1.85-5.12,0-9.18-.98-12.18-2.96s-4.5-4.74-4.5-8.29,1.52-6.54,4.55-8.57c3.03-2.03,6.97-3.05,11.8-3.05s8.5,1,11.47,2.99c2.97,1.99,4.45,4.79,4.45,8.4,0,.22-.01.55-.03.99h-26.1c.22,2.4,1.31,4.24,3.26,5.52,1.96,1.28,4.39,1.92,7.32,1.92,2.18,0,4.03-.36,5.57-1.07s2.76-1.85,3.66-3.42ZM960.83,1068.05h19.54c-.26-1.84-1.01-3.22-2.24-4.14-1.89-1.43-4.34-2.14-7.35-2.14-2.72,0-5.02.57-6.87,1.71s-2.88,2.66-3.08,4.57Z"/>
        <path class="st5" d="M991.46,1081.09v-30.2h5.93v30.2h-5.93Z"/>
        <path class="st5" d="M1001.92,1074.56l5.87-.58c.33,1.47,1.25,2.6,2.75,3.38s3.61,1.17,6.31,1.17,4.75-.35,6.06-1.04c1.32-.69,1.98-1.51,1.98-2.44,0-.84-.58-1.5-1.75-1.98-.81-.33-2.83-.75-6.06-1.26-4.35-.69-7.37-1.28-9.05-1.78-1.68-.5-2.96-1.19-3.82-2.08-.87-.89-1.3-1.86-1.3-2.94,0-.98.36-1.88,1.07-2.71s1.69-1.52,2.92-2.07c.92-.43,2.18-.79,3.77-1.08,1.59-.29,3.3-.44,5.13-.44,2.75,0,5.16.25,7.23.74s3.61,1.16,4.6,2.01c.99.85,1.67,1.97,2.04,3.39l-5.8.49c-.26-1.13-1.03-2-2.29-2.64s-3.05-.95-5.36-.95c-2.72,0-4.67.28-5.83.84s-1.75,1.22-1.75,1.98c0,.48.24.91.73,1.3.48.4,1.24.73,2.27.99.59.14,2.34.45,5.24.95,4.2.7,7.12,1.27,8.78,1.72,1.66.45,2.96,1.1,3.91,1.95s1.42,1.91,1.42,3.17-.58,2.4-1.73,3.49c-1.15,1.09-2.82,1.94-4.99,2.54-2.18.6-4.64.9-7.38.9-4.55,0-8.01-.59-10.4-1.77s-3.91-2.93-4.56-5.25Z"/>
      </g>
    </g>
  </g>
</svg>