<?xml version="1.0" encoding="UTF-8"?>
<svg id="Logo" xmlns="http://www.w3.org/2000/svg" version="1.1" viewBox="0 0 1500 1500">
  <!-- Generator: Adobe Illustrator 29.2.1, SVG Export Plug-In . SVG Version: 2.1.0 Build 116)  -->
  <defs>
    <style>
      .st0 {
        fill: #fdb719;
      }

      .st1 {
        fill: #139dd9;
      }

      .st2 {
        fill: #1b449c;
      }

      .st3 {
        fill: #1b479a;
      }
    </style>
  </defs>
  <g id="MarkColor">
    <path class="st0" d="M849.4,690.1c88.87-30.87,257.53-73.86,427.31-37.22-83.83-71.8-335.37-27.07-427.4,37.06-.11.07-.02.2.09.15M1385.31,738.02c-100.13-72.77-288.64-77.66-507.43,83.52-217.02,159.83-412.39,168.83-538.03,91.79-1.81-1.11-4.16-.82-5.59.75l-17.09,18.46c-2.59,2.81-6.9,2.99-9.86.55-23.57-19.44-39.21,2.96-40.89,5.55-.11.15-.22.33-.35.49l-39.1,50.73c-2.06,2.65-5.68,3.52-8.73,2.08l-99.8-47.83c-4.18-2.1-4.86-10.13-2.03-13.86l213.83-284.2c10.42-12.38,14-11.72,24.1-2.28l66.74,70.32c4.47,4.64,7.28,14.26,3.58,19.53l-44.45,56.65c-22.11,25.56,10.61,47.52,10.61,47.52l-15.63,21.49c140.66,24.92,336.63-108.58,336.63-108.58,251.4-179.45,543.45-255.92,673.5-12.69M218.91,948.18l18.69-29.45-45.13-37.99-31.82,40.09,58.27,27.35Z"/>
    <path class="st1" d="M1022.68,783.44s-.57,179.27-.57,180.73c0,71.6-16.61,93.91-94.73,93.91-73.26.49-248.99-.66-248.99-.66,0,0-63.02,3.18-66.43-64.7,0,0,126.91-27.6,216.35-88.89,51.59-35.34,167.99-109.64,194.37-120.38"/>
    <path class="st1" d="M718.03,414.11c-85.27-14.2-76.02,62.07-72.73,79.94.18.93,1.44,1.02,1.75.13,3.38-10.28,17.56-41.73,71.09-79.59.18-.13.11-.44-.11-.49M1024.21,463.55c0,73.28.27,87.97.4,90.38-3.98.82-114.7,24.01-195.57,74.54-92.85,57.98-189.82,126.64-217.08,133.87l-.42-307.11s-4.22-74.72,70.5-74.72c0,0,129.74-1.11,246.65.82,39.38.66,95.53-6.48,95.53,82.22"/>
    <path class="st3" d="M1102.04,750.71v310.16c0,112.47-98.4,133.03-120.27,136.19-2.45.38-302.66.53-302.66.53-145.44,0-146.52-120.8-146.52-196.01,0-.18.13-.29.31-.24,3.36.82,28.46-1.37,46.08-3.67,8.47,96.39,101.1,92.96,101.1,92.96l247.93,1.15c100.95,1.95,127.31-48.85,128.61-99.16v-224.82l45.42-17.09ZM866.16,1161.22s23.44,2.92,22.22-20.28c-1.22-23.2-21.49-21.01-21.49-21.01,0,0-82.04,1.48-102.07,1.48s-18.31,19.53-18.31,19.53c.97,25.39,22.71,20.39,22.71,20.39l96.94-.11Z"/>
    <path class="st2" d="M1102.05,465.5v80.58l-45.69,1.9.51-89.07c-.02-1.15,9.97-114.02-114.86-111.43-44.76,0-227.21.69-228.23.64-57.32-1.95-137.08-3.21-134.8,119.5l.97,310.93-45.58,18.88s-.33-358.92-.33-361.24c0-53.71,39.07-132.83,132.86-132.83,60.1,0,264.14-.64,267.1-.64,36.33.15,169.36-16.08,168.04,162.77"/>
  </g>
</svg>